<?xml version="1.0" encoding="UTF-8" standalone="no"?>
<!-- Created with Inkscape (http://www.inkscape.org/) -->

<svg
   width="153.88901mm"
   height="208.39mm"
   viewBox="0 0 153.88901 208.39"
   version="1.1"
   id="svg1"
   xmlns="http://www.w3.org/2000/svg"
   xmlns:svg="http://www.w3.org/2000/svg">
  <defs
     id="defs1" />
  <g
     id="layer1"
     transform="translate(-40.752866,-67.050837)">
    <g
       id="g5"
       transform="matrix(1.241287,0,0,1.8107943,-9.8331383,-54.364435)"
       style="fill:#808000">
      <path
         d="m 87.432184,126.10821 20.065326,0.83216 q -1.98292,24.96446 -10.811662,38.58146 -8.781537,13.61699 -22.945302,13.61699 -14.399826,0 -24.125611,-15.4326 -9.678571,-15.50823 -9.678571,-38.43016 0,-23.07323 9.86742,-38.808416 9.914636,-15.735181 24.408886,-15.735181 14.25819,0 23.79512,15.432582 6.60976,10.666638 9.34809,29.730415 l -20.537459,2.19386 q -3.446515,-16.94559 -13.077875,-16.94559 -6.137632,0 -10.150697,6.80849 -3.965852,6.80849 -3.965852,17.32384 0,10.13706 3.91864,16.79428 3.918642,6.58152 9.914635,6.58152 6.090418,0 9.678571,-5.82502 3.635365,-5.82504 4.296341,-16.71863 z M 162.93826,73.30456 134.8468,182.46738 106.94417,73.30456 h 22.18992 l 5.90154,32.22686 6.51535,-32.22686 z"
         id="text1"
         style="font-size:47.1066px;line-height:1;font-family:'Bauhaus 93';-inkscape-font-specification:'Bauhaus 93, ';text-align:center;letter-spacing:0.0294416px;text-anchor:middle;fill:#808000;stroke-width:28.9124;stroke-linecap:round;stroke-linejoin:round;stroke-miterlimit:106.9;paint-order:stroke fill markers"
         aria-label="CV&#10;" />
    </g>
  </g>
</svg>
